<?xml version="1.0" encoding="utf-8"?>
<!-- Generator: Adobe Illustrator 19.0.1, SVG Export Plug-In . SVG Version: 6.00 Build 0)  -->
<svg version="1.1" id="Ebene_1" xmlns="http://www.w3.org/2000/svg" xmlns:xlink="http://www.w3.org/1999/xlink" x="0px" y="0px"
	 viewBox="-831 1181.9 1240.2 992.1" style="enable-background:new -831 1181.9 1240.2 992.1;" xml:space="preserve">
<style type="text/css">
	.st0{fill:#444444;}
</style>
<path class="st0" d="M-210.9,1554c-102.7,0-186,83.3-186,186c0,102.7,83.3,186,186,186c102.7,0,186-83.3,186-186
	C-24.9,1637.3-108.2,1554-210.9,1554z M285.1,1368H136.3c-20.5,0-42.5-15.9-48.9-35.3l-38.5-115.4c-6.5-19.4-28.5-35.3-49-35.3
	h-421.7c-20.5,0-42.5,15.9-48.9,35.2l-38.6,115.5c-6.4,19.5-28.5,35.3-48.9,35.3H-707c-68.2,0-124,55.8-124,124v558.1
	c0,68.2,55.8,124,124,124h992.1c68.2,0,124-55.8,124-124V1492C409.2,1423.8,353.4,1368,285.1,1368z M-210.9,2050.1
	c-171.3,0-310-138.8-310-310s138.8-310,310-310c171.2,0,310,138.8,310,310S-39.7,2050.1-210.9,2050.1z M254.1,1566.4
	c-24,0-43.4-19.5-43.4-43.5c0-23.9,19.4-43.4,43.4-43.4s43.4,19.5,43.4,43.4C297.5,1546.9,278.1,1566.4,254.1,1566.4z"/>
</svg>
