<?xml version="1.0" encoding="UTF-8"?>
<svg width="57px" height="52px" viewBox="0 0 57 52" version="1.1" xmlns="http://www.w3.org/2000/svg" xmlns:xlink="http://www.w3.org/1999/xlink">
    <!-- Generator: sketchtool 53.2 (72643) - https://sketchapp.com -->
    <title>72D3A382-D152-41C7-9F8D-421955F5FCA4</title>
    <desc>Created with sketchtool.</desc>
    <g id="SSS-Primary-CTA" stroke="none" stroke-width="1" fill="none" fill-rule="evenodd">
        <g id="SSS-primary-CTA-768" transform="translate(-351.000000, -50.000000)">
            <g id="Primary-CTA-">
                <g id="icon/siedle_icon_headset" transform="translate(344.000000, 40.000000)">
                    <g id="siedle-icons_forms_headset">
                        <path d="M57.3546875,26.18125 L54.1375,26.18125 C52.80625,16.9734375 44.9296875,9.984375 35.5,9.984375 C26.403125,9.984375 18.7484375,16.41875 17.084375,25.071875 L13.75625,25.071875 C10.5390625,25.071875 7.8765625,27.8453125 7.8765625,31.3953125 L7.8765625,39.271875 C7.8765625,42.7109375 10.5390625,45.5953125 13.75625,45.5953125 L17.75,45.5953125 C18.415625,45.5953125 18.859375,45.1515625 18.859375,44.4859375 L18.859375,28.84375 C18.859375,19.6359375 26.2921875,12.203125 35.5,12.203125 C44.7078125,12.203125 52.140625,19.6359375 52.140625,28.84375 L52.140625,39.9375 C52.140625,42.821875 51.3640625,45.70625 49.921875,48.2578125 C48.2578125,51.03125 45.8171875,53.3609375 42.9328125,54.803125 C42.2671875,53.25 40.603125,52.140625 38.828125,52.140625 L32.171875,52.140625 C29.73125,52.140625 27.734375,54.1375 27.734375,56.578125 C27.734375,59.01875 29.73125,61.015625 32.171875,61.015625 L38.828125,61.015625 C41.046875,61.015625 42.9328125,59.3515625 43.1546875,57.1328125 C46.7046875,55.46875 49.8109375,52.80625 51.8078125,49.3671875 C52.3625,48.4796875 52.80625,47.48125 53.1390625,46.59375 C53.1390625,46.59375 53.25,46.59375 53.25,46.59375 L57.3546875,46.59375 C60.571875,46.59375 63.234375,43.8203125 63.234375,40.2703125 L63.234375,32.39375 C63.234375,28.9546875 60.571875,26.18125 57.3546875,26.18125 Z M9.984375,39.1609375 L9.984375,31.284375 C9.984375,29.065625 11.6484375,27.1796875 13.6453125,27.1796875 L16.640625,27.1796875 C16.640625,27.734375 16.5296875,28.2890625 16.5296875,28.7328125 L16.5296875,43.1546875 L13.534375,43.1546875 C11.6484375,43.265625 9.984375,41.490625 9.984375,39.1609375 Z M38.828125,58.796875 L32.171875,58.796875 C30.9515625,58.796875 29.953125,57.7984375 29.953125,56.578125 C29.953125,55.3578125 30.9515625,54.359375 32.171875,54.359375 L38.828125,54.359375 C40.0484375,54.359375 41.046875,55.3578125 41.046875,56.578125 C41.046875,57.7984375 40.0484375,58.796875 38.828125,58.796875 Z M61.015625,40.2703125 C61.015625,42.4890625 59.3515625,44.375 57.3546875,44.375 L53.915625,44.375 C54.2484375,42.9328125 54.4703125,41.490625 54.4703125,39.9375 L54.4703125,28.84375 C54.4703125,28.621875 54.4703125,28.5109375 54.4703125,28.4 L57.465625,28.4 C59.4625,28.4 61.1265625,30.175 61.1265625,32.5046875 L61.1265625,40.2703125 L61.015625,40.2703125 Z" id="Shape" fill="#FFFFFF"></path>
                        <rect id="Rectangle" x="0" y="0" width="71" height="71"></rect>
                    </g>
                </g>
            </g>
        </g>
    </g>
</svg>