<?xml version="1.0" encoding="UTF-8"?>
<svg width="20px" height="11px" viewBox="0 0 20 11" version="1.1" xmlns="http://www.w3.org/2000/svg" xmlns:xlink="http://www.w3.org/1999/xlink">
    <!-- Generator: sketchtool 52.5 (67469) - http://www.bohemiancoding.com/sketch -->
    <title>43F85172-5135-4CBB-A2A4-FE2107286631</title>
    <desc>Created with sketchtool.</desc>
    <g id="SSS-Routing-Teaser-Sprint-1" stroke="none" stroke-width="1" fill="none" fill-rule="evenodd">
        <g id="SSS-Routing-Teaser-1920-XXL-Maxwidth-1320" transform="translate(-1186.000000, -1792.000000)" fill="#FF2941">
            <g id="Teaser-3" transform="translate(160.000000, 1391.000000)">
                <g id="txt" transform="translate(870.000000, 184.000000)">
                    <g id="Link" transform="translate(0.000000, 211.000000)">
                        <g id="icon/siedle_icon_aroow_right_long" transform="translate(156.000000, 7.000000)">
                            <path d="M19.8282798,4.12685316 C19.9335001,4.21851734 20,4.35349273 20,4.504 C20,4.65450727 19.9335001,4.78948266 19.8282798,4.88114684 L14.6748876,9.41613199 C14.4675837,9.59855934 14.1516442,9.57839299 13.9692168,9.37108917 C13.7867895,9.16378536 13.8069558,8.84784582 14.0142597,8.66541847 L18.1749625,5.004 L0.5,5.004 C0.223857625,5.004 -1.03028697e-13,4.78014237 -1.03028697e-13,4.504 C-1.03028697e-13,4.22785763 0.223857625,4.004 0.5,4.004 L18.1749625,4.004 L14.1416278,0.454665477 C13.934324,0.272238121 13.9141576,-0.0437014152 14.096585,-0.251005229 C14.2790123,-0.458309042 14.5949519,-0.478475396 14.8022557,-0.29604804 L19.8282798,4.12685316 Z" id="Combined-Shape"></path>
                        </g>
                    </g>
                </g>
            </g>
        </g>
    </g>
</svg>